<svg width="285" height="246" viewBox="0 0 285 246" fill="none" xmlns="http://www.w3.org/2000/svg">
<path fill-rule="evenodd" clip-rule="evenodd" d="M184.731 189.101C184.731 189.101 201.965 202.683 214.731 208.101C232.609 215.688 267.731 221.102 266.731 217.602C265.731 214.102 256.231 203.101 246.231 189.101C236.231 175.101 241.231 165.102 241.231 165.102C241.231 165.102 256.701 157.595 263.731 149.101C270.76 140.607 279.231 121.601 279.231 121.601C279.231 121.601 286.754 96.5322 284.231 80.6007C280.721 58.4396 263.731 38.6006 254.231 31.6007C244.731 24.6008 218.73 5.10002 184.731 1.60069C150.731 -1.89863 116.474 -1.67452 86.2305 23.6007C66.0288 40.4839 55.1325 54.7332 50.2306 80.6007C46.3923 100.855 47.3984 114.245 55.7306 133.101C63.2386 150.091 71.2843 158.571 86.2305 169.601C104.419 183.023 118.373 185.764 140.731 189.101C157.725 191.637 184.731 189.101 184.731 189.101ZM94.7309 93.1016C93.5678 84.4536 100.543 76.9179 109.231 76.1016C118.717 75.2102 125.985 83.6565 124.731 93.1016C123.61 101.541 117.708 106.884 109.231 106.102C101.658 105.403 95.7446 100.639 94.7309 93.1016ZM151.231 93.1016C150.034 84.1975 157.752 75.8044 166.731 76.1016C175.452 76.3901 182.394 84.4536 181.231 93.1016C180.217 100.639 174.332 105.851 166.731 106.102C158.835 106.362 152.283 100.931 151.231 93.1016ZM206.731 93.1016C205.518 84.0657 213.619 75.8087 222.731 76.1016C231.58 76.3859 238.911 84.3268 237.731 93.1016C236.697 100.784 230.479 105.855 222.731 106.102C214.684 106.357 207.801 101.081 206.731 93.1016Z" fill="white"/>
<path d="M35.8007 76.1016V106.102C35.8007 106.102 20.7652 121.561 21.3008 136.602C21.6436 146.229 24.4755 164.253 35.8007 174.602C47.1259 184.95 54.8004 188.257 57.3007 191.602C59.8011 194.946 54.8004 217.602 54.8004 217.602L83.2266 201.102C83.2266 201.102 100.175 202.809 109.231 202.602C116.934 202.425 126.727 198.102 126.727 198.102L165.801 202.602C165.801 202.602 144.67 216.278 129.301 219.602C114.605 222.78 90.8007 219.602 90.8007 219.602C90.8007 219.602 74.1608 231.128 62.3007 236.102C48.1942 242.017 35.8007 245.602 24.3007 245.602C12.8007 245.602 18.3007 242.102 18.3007 242.102C18.3007 242.102 31.8955 227.314 35.8007 219.602C39.706 211.889 38.3007 202.602 38.3007 202.602C38.3007 202.602 13.1727 186.118 5.80073 169.601C-0.914204 154.555 -1.14425 143.812 1.80073 127.602C3.90066 116.043 6.50587 109.521 12.8007 99.6016C19.6813 88.7591 35.8007 76.1016 35.8007 76.1016Z" fill="white"/>
</svg>
